<?xml version="1.0" encoding="UTF-8"?>
<!DOCTYPE svg PUBLIC "-//W3C//DTD SVG 1.1//EN" "http://www.w3.org/Graphics/SVG/1.1/DTD/svg11.dtd">
<svg xmlns="http://www.w3.org/2000/svg" version="1.1" width="439px" height="393px" style="shape-rendering:geometricPrecision; text-rendering:geometricPrecision; image-rendering:optimizeQuality; fill-rule:evenodd; clip-rule:evenodd" xmlns:xlink="http://www.w3.org/1999/xlink">
<g><path style="opacity:0.929" fill="#000000" d="M 357.5,1.5 C 373.016,-0.364807 387.349,2.80186 400.5,11C 409.248,19.4972 414.248,29.8306 415.5,42C 407.605,43.6011 399.605,43.9345 391.5,43C 389.346,38.5616 387.179,34.0616 385,29.5C 374.594,20.8746 363.761,20.3746 352.5,28C 347.334,33.8355 344.501,40.6689 344,48.5C 343.333,58.8333 343.333,69.1667 344,79.5C 347.604,100.229 359.77,108.395 380.5,104C 384.142,103.272 386.975,101.438 389,98.5C 389.499,92.5092 389.666,86.5092 389.5,80.5C 382.159,80.6663 374.826,80.4997 367.5,80C 366.167,73.6667 366.167,67.3333 367.5,61C 383.497,60.5001 399.497,60.3334 415.5,60.5C 415.667,76.8367 415.5,93.1701 415,109.5C 405.046,118.828 393.212,124.328 379.5,126C 342.936,129.084 322.103,112.584 317,76.5C 314.214,56.6427 317.548,37.9761 327,20.5C 334.742,10.2154 344.908,3.88209 357.5,1.5 Z"/></g>
<g><path style="opacity:0.952" fill="#000000" d="M 8.5,2.5 C 24.1702,2.33341 39.8369,2.50008 55.5,3C 56.7659,3.30945 57.9326,3.80945 59,4.5C 68.3439,32.0333 78.1772,59.3666 88.5,86.5C 98.495,59.2017 108.495,31.8683 118.5,4.5C 129.814,3.50115 141.147,3.16782 152.5,3.5C 152.5,43.5 152.5,83.5 152.5,123.5C 143.833,123.5 135.167,123.5 126.5,123.5C 126.126,96.5775 126.793,69.7442 128.5,43C 128.167,42.8333 127.833,42.6667 127.5,42.5C 117.394,69.0493 107.561,95.716 98,122.5C 91.5898,123.478 85.0898,123.811 78.5,123.5C 71.9738,103.756 65.1405,84.0892 58,64.5C 57.2653,87.8454 57.4319,111.179 58.5,134.5C 184.833,134.5 311.167,134.5 437.5,134.5C 437.5,136.833 437.5,139.167 437.5,141.5C 311.167,141.5 184.833,141.5 58.5,141.5C 58.2011,143.604 58.5344,145.604 59.5,147.5C 74.8083,143.958 83.9749,149.958 87,165.5C 89.563,178.44 87.8963,190.774 82,202.5C 76.03,209.325 68.6966,211.325 60,208.5C 60.347,269.17 61.1804,329.836 62.5,390.5C 44.1625,390.646 25.8291,390.979 7.5,391.5C 5.41113,262.168 3.41113,132.835 1.5,3.5C 4.0593,3.80155 6.39263,3.46822 8.5,2.5 Z M 59.5,160.5 C 67.195,160.023 71.3616,163.689 72,171.5C 72.9615,178.336 72.2948,185.003 70,191.5C 67.4093,195.048 63.9093,196.382 59.5,195.5C 58.4114,183.77 58.4114,172.103 59.5,160.5 Z"/></g>
<g><path style="opacity:0.931" fill="#000000" d="M 172.5,3.5 C 183.748,3.17925 194.915,3.51259 206,4.5C 215.344,32.0333 225.177,59.3666 235.5,86.5C 245.683,59.2878 255.683,31.9545 265.5,4.5C 276.814,3.50115 288.147,3.16782 299.5,3.5C 299.5,43.5 299.5,83.5 299.5,123.5C 290.833,123.5 282.167,123.5 273.5,123.5C 273.126,96.5775 273.793,69.7442 275.5,43C 275.167,42.8333 274.833,42.6667 274.5,42.5C 264.989,69.5338 254.989,96.3671 244.5,123C 238.472,123.83 232.472,123.664 226.5,122.5C 216.572,95.8829 206.738,69.2162 197,42.5C 196.626,43.4162 196.126,44.2496 195.5,45C 197.072,55.0493 197.906,65.216 198,75.5C 198.667,91.1667 198.667,106.833 198,122.5C 189.333,123.833 180.667,123.833 172,122.5C 171.179,82.7919 171.345,43.1253 172.5,3.5 Z"/></g>
<g><path style="opacity:0.904" fill="#000000" d="M 115.5,146.5 C 119.167,146.5 122.833,146.5 126.5,146.5C 126.5,152.167 126.5,157.833 126.5,163.5C 124.409,163.682 122.409,163.348 120.5,162.5C 116.237,162.875 113.071,164.875 111,168.5C 110.5,181.829 110.333,195.163 110.5,208.5C 105.5,208.5 100.5,208.5 95.5,208.5C 95.5,188.167 95.5,167.833 95.5,147.5C 100.214,147.173 104.88,147.507 109.5,148.5C 109.808,149.308 110.308,149.975 111,150.5C 112.667,149.267 114.167,147.933 115.5,146.5 Z"/></g>
<g><path style="opacity:0.884" fill="#000000" d="M 145.5,146.5 C 168.022,145.017 179.356,155.684 179.5,178.5C 178.015,204.183 165.015,213.683 140.5,207C 134.575,202.992 130.742,197.492 129,190.5C 126.581,179.962 127.247,169.629 131,159.5C 134.162,153.164 138.996,148.831 145.5,146.5 Z M 149.5,160.5 C 157.707,159.536 162.207,163.202 163,171.5C 164.14,178.833 163.14,185.833 160,192.5C 151.997,197.917 146.663,195.917 144,186.5C 143.333,180.833 143.333,175.167 144,169.5C 144.837,165.843 146.67,162.843 149.5,160.5 Z"/></g>
<g><path style="opacity:0.594" fill="#000000" d="M 213.5,156.5 C 216.596,155.907 218.929,156.907 220.5,159.5C 218.927,162.193 216.593,163.026 213.5,162C 212.248,160.172 212.248,158.339 213.5,156.5 Z"/></g>
<g><path style="opacity:0.638" fill="#000000" d="M 233.5,156.5 C 236.5,156.5 239.5,156.5 242.5,156.5C 242.5,159.5 242.5,162.5 242.5,165.5C 245.895,163.854 249.061,164.187 252,166.5C 252.333,171.5 252.667,176.5 253,181.5C 253.5,182 254,182.5 254.5,183C 245.144,183.516 235.811,183.85 226.5,184C 225.151,183.228 224.318,182.061 224,180.5C 224.08,175.365 223.247,170.531 221.5,166C 223.192,164.599 223.859,162.766 223.5,160.5C 225.591,160.682 227.591,160.348 229.5,159.5C 230.466,161.396 230.799,163.396 230.5,165.5C 235.833,165.833 235.833,166.167 230.5,166.5C 230.334,171.511 230.501,176.511 231,181.5C 233.071,178.584 234.405,178.918 235,182.5C 236.037,173.642 235.537,164.976 233.5,156.5 Z M 243.5,167.5 C 244.496,167.414 245.329,167.748 246,168.5C 246.667,172.833 246.667,177.167 246,181.5C 244.989,182.337 243.822,182.67 242.5,182.5C 242.221,177.405 242.555,172.405 243.5,167.5 Z"/></g>
<g><path style="opacity:0.678" fill="#000000" d="M 274.5,156.5 C 277.5,156.5 280.5,156.5 283.5,156.5C 283.5,159.5 283.5,162.5 283.5,165.5C 291.098,163.204 295.098,166.037 295.5,174C 295.624,178.643 293.624,181.976 289.5,184C 285.037,183.941 280.704,183.775 276.5,183.5C 277.635,175.549 277.802,167.549 277,159.5C 275.583,158.922 274.75,157.922 274.5,156.5 Z M 284.5,167.5 C 287.586,168.654 288.919,170.988 288.5,174.5C 288.406,176.923 287.906,179.256 287,181.5C 285.989,182.337 284.822,182.67 283.5,182.5C 283.221,177.405 283.555,172.405 284.5,167.5 Z"/></g>
<g><path style="opacity:0.626" fill="#000000" d="M 307.5,156.5 C 312.5,155.5 314.5,157.5 313.5,162.5C 307.591,163.926 305.591,161.926 307.5,156.5 Z"/></g>
<g><path style="opacity:0.62" fill="#000000" d="M 197.5,164.5 C 204.788,164.28 212.121,164.613 219.5,165.5C 219.334,170.844 219.501,176.177 220,181.5C 220.5,182 221,182.5 221.5,183C 218.167,183.667 214.833,183.667 211.5,183C 212,182.5 212.5,182 213,181.5C 213.667,177.167 213.667,172.833 213,168.5C 212.667,168.167 212.333,167.833 212,167.5C 210.951,169.107 209.451,169.773 207.5,169.5C 207.919,172.325 206.919,174.491 204.5,176C 202.285,176.17 200.285,176.837 198.5,178C 201.956,178.18 205.289,178.847 208.5,180C 210.984,182.284 211.151,184.784 209,187.5C 203.801,190.855 198.301,191.355 192.5,189C 190.682,185.613 191.682,183.613 195.5,183C 193.2,180.995 193.2,178.828 195.5,176.5C 192.61,174.205 191.777,171.205 193,167.5C 194.409,166.219 195.909,165.219 197.5,164.5 Z M 199.5,166.5 C 200.634,168.966 200.801,171.633 200,174.5C 198.188,171.954 198.022,169.288 199.5,166.5 Z M 197.5,183.5 C 199.527,183.338 201.527,183.505 203.5,184C 204.517,185.049 204.684,186.216 204,187.5C 201.599,188.602 199.099,188.769 196.5,188C 195.419,186.289 195.752,184.789 197.5,183.5 Z"/></g>
<g><path style="opacity:0.645" fill="#000000" d="M 323.5,164.5 C 330.585,164.419 334.252,167.919 334.5,175C 333.809,183.031 329.476,186.031 321.5,184C 319.714,183.215 318.214,182.049 317,180.5C 316.333,176.833 316.333,173.167 317,169.5C 318.272,166.508 320.438,164.841 323.5,164.5 Z M 324.5,166.5 C 325.79,167.058 326.623,168.058 327,169.5C 327.167,171.333 327.333,173.167 327.5,175C 327.695,177.793 327.029,180.293 325.5,182.5C 321.878,177.483 321.545,172.15 324.5,166.5 Z"/></g>
<g><path style="opacity:0.634" fill="#000000" d="M 254.5,166.5 C 257.287,165.523 260.287,165.19 263.5,165.5C 263.172,170.875 263.505,176.208 264.5,181.5C 266.891,179.634 267.891,177.134 267.5,174C 267.853,170.8 266.853,168.133 264.5,166C 267.482,165.502 270.482,165.335 273.5,165.5C 273.334,170.844 273.501,176.177 274,181.5C 274.5,182 275,182.5 275.5,183C 270.187,183.999 264.854,184.332 259.5,184C 258.692,183.692 258.025,183.192 257.5,182.5C 256.717,177.553 256.217,172.553 256,167.5C 255.617,166.944 255.117,166.611 254.5,166.5 Z"/></g>
<g><path style="opacity:0.727" fill="#000000" d="M 304.5,166.5 C 307.287,165.523 310.287,165.19 313.5,165.5C 313.334,170.844 313.501,176.177 314,181.5C 314.5,182 315,182.5 315.5,183C 311.833,183.667 308.167,183.667 304.5,183C 305.416,182.626 306.25,182.126 307,181.5C 307.667,177.167 307.667,172.833 307,168.5C 306.292,167.619 305.458,166.953 304.5,166.5 Z"/></g>
<g><path style="opacity:0.595" fill="#000000" d="M 297.5,178.5 C 302.123,177.408 303.956,179.075 303,183.5C 297.42,185.752 295.587,184.085 297.5,178.5 Z"/></g>
<g><path style="opacity:0.974" fill="#000000" d="M 129.5,230.5 C 143.048,232.222 148.881,239.889 147,253.5C 138.067,264.436 128.4,274.769 118,284.5C 117.333,286.833 117.333,289.167 118,291.5C 125.969,300.47 134.303,309.137 143,317.5C 149.358,331.451 145.025,340.118 130,343.5C 126.447,343.316 123.281,342.15 120.5,340C 104.667,324.167 88.8333,308.333 73,292.5C 71.0333,289.002 71.3666,285.668 74,282.5C 88.5,268 103,253.5 117.5,239C 121.391,235.899 125.391,233.066 129.5,230.5 Z"/></g>
<g><path style="opacity:0.967" fill="#000000" d="M 221.5,231.5 C 226.227,231.909 230.56,233.409 234.5,236C 249.667,251.167 264.833,266.333 280,281.5C 282,285.167 282,288.833 280,292.5C 263.44,309.728 246.274,326.228 228.5,342C 221.434,345.849 215.267,344.683 210,338.5C 204.488,331.756 204.155,324.756 209,317.5C 217.667,308.833 226.333,300.167 235,291.5C 237,288.5 237,285.5 235,282.5C 227.333,274.833 219.667,267.167 212,259.5C 204.084,246.342 207.251,237.009 221.5,231.5 Z"/></g>
<g><path style="opacity:0.848" fill="#000000" d="M 187.5,237.5 C 191.884,237.174 196.217,237.508 200.5,238.5C 187.39,271.055 174.556,303.722 162,336.5C 160.786,338.049 159.286,339.215 157.5,340C 153.5,340.667 149.5,340.667 145.5,340C 158.191,308.263 170.691,276.429 183,244.5C 184.012,241.798 185.512,239.465 187.5,237.5 Z"/></g>
</svg>
